  0
SECTION
  2
HEADER
  9
$ACADVER
  1
AC1009
  9
$DWGCODEPAGE
  3
ansi_1252
  9
$INSBASE
 10
0.0
 20
0.0
 30
0.0
  9
$EXTMIN
 10
0.0
 20
0.2952755905500002
 30
0.0
  9
$EXTMAX
 10
9.842519685000001
 20
5.61023622045
 30
0.0
  9
$LIMMIN
 10
0.0
 20
0.0
  9
$LIMMAX
 10
12.0
 20
9.0
  9
$ORTHOMODE
 70
     0
  9
$REGENMODE
 70
     1
  9
$FILLMODE
 70
     1
  9
$QTEXTMODE
 70
     0
  9
$MIRRTEXT
 70
     1
  9
$DRAGMODE
 70
     2
  9
$LTSCALE
 40
1.0
  9
$OSMODE
 70
    37
  9
$ATTMODE
 70
     1
  9
$TEXTSIZE
 40
0.2
  9
$TRACEWID
 40
0.05
  9
$TEXTSTYLE
  7
STANDARD
  9
$CLAYER
  8
0
  9
$CELTYPE
  6
BYLAYER
  9
$CECOLOR
 62
   256
  9
$DIMSCALE
 40
1.0
  9
$DIMASZ
 40
0.18
  9
$DIMEXO
 40
0.0625
  9
$DIMDLI
 40
0.38
  9
$DIMRND
 40
0.0
  9
$DIMDLE
 40
0.0
  9
$DIMEXE
 40
0.18
  9
$DIMTP
 40
0.0
  9
$DIMTM
 40
0.0
  9
$DIMTXT
 40
0.18
  9
$DIMCEN
 40
0.09
  9
$DIMTSZ
 40
0.0
  9
$DIMTOL
 70
     0
  9
$DIMLIM
 70
     0
  9
$DIMTIH
 70
     1
  9
$DIMTOH
 70
     1
  9
$DIMSE1
 70
     0
  9
$DIMSE2
 70
     0
  9
$DIMTAD
 70
     0
  9
$DIMZIN
 70
     0
  9
$DIMBLK
  1

  9
$DIMASO
 70
     1
  9
$DIMSHO
 70
     1
  9
$DIMPOST
  1

  9
$DIMAPOST
  1

  9
$DIMALT
 70
     0
  9
$DIMALTD
 70
     2
  9
$DIMALTF
 40
25.4
  9
$DIMLFAC
 40
1.0
  9
$DIMTOFL
 70
     0
  9
$DIMTVP
 40
0.0
  9
$DIMTIX
 70
     0
  9
$DIMSOXD
 70
     0
  9
$DIMSAH
 70
     0
  9
$DIMBLK1
  1

  9
$DIMBLK2
  1

  9
$DIMSTYLE
  2
STANDARD
  9
$DIMCLRD
 70
     0
  9
$DIMCLRE
 70
     0
  9
$DIMCLRT
 70
     0
  9
$DIMTFAC
 40
1.0
  9
$DIMGAP
 40
0.09
  9
$LUNITS
 70
     2
  9
$LUPREC
 70
     4
  9
$SKETCHINC
 40
0.1
  9
$FILLETRAD
 40
0.5
  9
$AUNITS
 70
     0
  9
$AUPREC
 70
     0
  9
$MENU
  1
.
  9
$ELEVATION
 40
0.0
  9
$PELEVATION
 40
0.0
  9
$THICKNESS
 40
0.0
  9
$LIMCHECK
 70
     0
  9
$CHAMFERA
 40
0.5
  9
$CHAMFERB
 40
0.5
  9
$SKPOLY
 70
     0
  9
$TDCREATE
 40
2454910.5
  9
$TDUPDATE
 40
2455777.614100452
  9
$TDINDWG
 40
0.0000000116
  9
$TDUSRTIMER
 40
0.0000000116
  9
$USRTIMER
 70
     1
  9
$ANGBASE
 50
0.0
  9
$ANGDIR
 70
     0
  9
$PDMODE
 70
     0
  9
$PDSIZE
 40
0.0
  9
$PLINEWID
 40
0.0
  9
$COORDS
 70
     1
  9
$SPLFRAME
 70
     0
  9
$SPLINETYPE
 70
     6
  9
$SPLINESEGS
 70
     8
  9
$ATTDIA
 70
     0
  9
$ATTREQ
 70
     1
  9
$HANDLING
 70
     1
  9
$HANDSEED
  5
134
  9
$SURFTAB1
 70
     6
  9
$SURFTAB2
 70
     6
  9
$SURFTYPE
 70
     6
  9
$SURFU
 70
     6
  9
$SURFV
 70
     6
  9
$UCSNAME
  2

  9
$UCSORG
 10
0.0
 20
0.0
 30
0.0
  9
$UCSXDIR
 10
1.0
 20
0.0
 30
0.0
  9
$UCSYDIR
 10
0.0
 20
1.0
 30
0.0
  9
$PUCSNAME
  2

  9
$PUCSORG
 10
0.0
 20
0.0
 30
0.0
  9
$PUCSXDIR
 10
1.0
 20
0.0
 30
0.0
  9
$PUCSYDIR
 10
0.0
 20
1.0
 30
0.0
  9
$USERI1
 70
     0
  9
$USERI2
 70
     0
  9
$USERI3
 70
     0
  9
$USERI4
 70
     0
  9
$USERI5
 70
     0
  9
$USERR1
 40
0.0
  9
$USERR2
 40
0.0
  9
$USERR3
 40
0.0
  9
$USERR4
 40
0.0
  9
$USERR5
 40
0.0
  9
$WORLDVIEW
 70
     1
  9
$SHADEDGE
 70
     3
  9
$SHADEDIF
 70
    70
  9
$TILEMODE
 70
     1
  9
$MAXACTVP
 70
    64
  9
$PLIMCHECK
 70
     0
  9
$PEXTMIN
 10
1.000000000000000E+20
 20
1.000000000000000E+20
 30
1.000000000000000E+20
  9
$PEXTMAX
 10
-1.000000000000000E+20
 20
-1.000000000000000E+20
 30
-1.000000000000000E+20
  9
$PLIMMIN
 10
0.0
 20
0.0
  9
$PLIMMAX
 10
12.0
 20
9.0
  9
$UNITMODE
 70
     0
  9
$VISRETAIN
 70
     1
  9
$PLINEGEN
 70
     0
  9
$PSLTSCALE
 70
     1
  0
ENDSEC
  0
SECTION
  2
TABLES
  0
TABLE
  2
VPORT
 70
     1
  0
VPORT
  2
*ACTIVE
 70
     0
 10
0.0
 20
0.0
 11
1.0
 21
1.0
 12
10.42990654205607
 22
4.5
 13
0.0
 23
0.0
 14
0.5
 24
0.5
 15
0.5
 25
0.5
 16
0.0
 26
0.0
 36
1.0
 17
0.0
 27
0.0
 37
0.0
 40
9.0
 41
1.972972972850329
 42
50.0
 43
0.0
 44
0.0
 50
0.0
 51
0.0
 71
     0
 72
   100
 73
     1
 74
     3
 75
     0
 76
     0
 77
     0
 78
     0
  0
ENDTAB
  0
TABLE
  2
LTYPE
 70
     2
  0
LTYPE
  2
CONTINUOUS
 70
     0
  3
Solid line
 72
    65
 73
     0
 40
0.0
  0
LTYPE
  2
CONTINUOUS2
 70
     0
  3
Solid Line
 72
    65
 73
     0
 40
0.0
  0
ENDTAB
  0
TABLE
  2
LAYER
 70
     2
  0
LAYER
  2
0
 70
     0
 62
     7
  6
CONTINUOUS
  0
LAYER
  2
LAYER_1
 70
     0
 62
    18
  6
CONTINUOUS
  0
ENDTAB
  0
TABLE
  2
STYLE
 70
     1
  0
STYLE
  2
STANDARD
 70
     0
 40
0.0
 41
1.0
 50
0.0
 71
     0
 42
0.2
  3
txt
  4

  0
ENDTAB
  0
TABLE
  2
VIEW
 70
     0
  0
ENDTAB
  0
TABLE
  2
UCS
 70
     0
  0
ENDTAB
  0
TABLE
  2
APPID
 70
     1
  0
APPID
  2
ACAD
 70
     0
  0
ENDTAB
  0
TABLE
  2
DIMSTYLE
 70
     1
  0
DIMSTYLE
  2
STANDARD
 70
     0
  3

  4

  5

  6

  7

 40
1.0
 41
0.18
 42
0.0625
 43
0.38
 44
0.18
 45
0.0
 46
0.0
 47
0.0
 48
0.0
140
0.18
141
0.09
142
0.0
143
25.4
144
1.0
145
0.0
146
1.0
147
0.09
 71
     0
 72
     0
 73
     1
 74
     1
 75
     0
 76
     0
 77
     0
 78
     0
170
     0
171
     2
172
     0
173
     0
174
     0
175
     0
176
     0
177
     0
178
     0
  0
ENDTAB
  0
ENDSEC
  0
SECTION
  2
BLOCKS
  0
BLOCK
  8
0
  2
$MODEL_SPACE
 70
     0
 10
0.0
 20
0.0
 30
0.0
  3
$MODEL_SPACE
  1

  0
ENDBLK
  5
21
  8
0
  0
BLOCK
 67
     1
  8
0
  2
$PAPER_SPACE
 70
     0
 10
0.0
 20
0.0
 30
0.0
  3
$PAPER_SPACE
  1

  0
ENDBLK
  5
1D
 67
     1
  8
0
  0
ENDSEC
  0
SECTION
  2
ENTITIES
  0
POLYLINE
  5
3D
  8
LAYER_1
 66
     1
 10
0.0
 20
0.0
 30
0.0
 70
     1
  0
VERTEX
  5
68
  8
LAYER_1
 10
0.3937007874000003
 20
0.6496062992100002
 30
0.0
  0
VERTEX
  5
69
  8
LAYER_1
 10
9.4488188976
 20
0.6496062992100002
 30
0.0
  0
VERTEX
  5
6A
  8
LAYER_1
 10
9.4488188976
 20
5.25590551179
 30
0.0
  0
VERTEX
  5
6B
  8
LAYER_1
 10
0.3937007874000003
 20
5.25590551179
 30
0.0
  0
SEQEND
  5
6C
  8
LAYER_1
  0
POLYLINE
  5
3E
  8
LAYER_1
 66
     1
 10
0.0
 20
0.0
 30
0.0
 70
     1
  0
VERTEX
  5
6D
  8
LAYER_1
 10
0.3937007874000003
 20
5.33464566927
 30
0.0
 42
0.4142135623730951
  0
VERTEX
  5
6E
  8
LAYER_1
 10
0.3149606299200007
 20
5.25590551179
 30
0.0
 42
0.4142135623730951
  0
VERTEX
  5
6F
  8
LAYER_1
 10
0.3937007874000003
 20
5.17716535431
 30
0.0
 42
0.4142135623730951
  0
VERTEX
  5
70
  8
LAYER_1
 10
0.4724409448800007
 20
5.25590551179
 30
0.0
 42
0.4142135623730951
  0
SEQEND
  5
71
  8
LAYER_1
  0
POLYLINE
  5
3F
  8
LAYER_1
 66
     1
 10
0.0
 20
0.0
 30
0.0
 70
     1
  0
VERTEX
  5
72
  8
LAYER_1
 10
0.3937007874000003
 20
0.7283464566900002
 30
0.0
 42
0.4142135623730951
  0
VERTEX
  5
73
  8
LAYER_1
 10
0.3149606299200007
 20
0.6496062992100002
 30
0.0
 42
0.4142135623730951
  0
VERTEX
  5
74
  8
LAYER_1
 10
0.3937007874000003
 20
0.5708661417299998
 30
0.0
 42
0.4142135623730951
  0
VERTEX
  5
75
  8
LAYER_1
 10
0.4724409448800007
 20
0.6496062992100002
 30
0.0
 42
0.4142135623730951
  0
SEQEND
  5
76
  8
LAYER_1
  0
POLYLINE
  5
40
  8
LAYER_1
 66
     1
 10
0.0
 20
0.0
 30
0.0
 70
     1
  0
VERTEX
  5
77
  8
LAYER_1
 10
9.4488188976
 20
0.7283464566900002
 30
0.0
 42
0.4142135623730951
  0
VERTEX
  5
78
  8
LAYER_1
 10
9.37007874012
 20
0.6496062992100002
 30
0.0
 42
0.4142135623730951
  0
VERTEX
  5
79
  8
LAYER_1
 10
9.4488188976
 20
0.5708661417299998
 30
0.0
 42
0.4142135623730951
  0
VERTEX
  5
7A
  8
LAYER_1
 10
9.527559055080001
 20
0.6496062992100002
 30
0.0
 42
0.4142135623730951
  0
SEQEND
  5
7B
  8
LAYER_1
  0
POLYLINE
  5
41
  8
LAYER_1
 66
     1
 10
0.0
 20
0.0
 30
0.0
 70
     1
  0
VERTEX
  5
7C
  8
LAYER_1
 10
9.4488188976
 20
5.33464566927
 30
0.0
 42
0.4142135623730951
  0
VERTEX
  5
7D
  8
LAYER_1
 10
9.37007874012
 20
5.25590551179
 30
0.0
 42
0.4142135623730951
  0
VERTEX
  5
7E
  8
LAYER_1
 10
9.4488188976
 20
5.17716535431
 30
0.0
 42
0.4142135623730951
  0
VERTEX
  5
7F
  8
LAYER_1
 10
9.527559055080001
 20
5.25590551179
 30
0.0
 42
0.4142135623730951
  0
SEQEND
  5
80
  8
LAYER_1
  0
POLYLINE
  5
42
  8
LAYER_1
 66
     1
 10
0.0
 20
0.0
 30
0.0
 70
     1
  0
VERTEX
  5
81
  8
LAYER_1
 10
0.0
 20
5.07874015746
 30
0.0
  0
VERTEX
  5
82
  8
LAYER_1
 10
0.0
 20
0.8267716535399998
 30
0.0
 42
0.4142135623730911
  0
VERTEX
  5
83
  8
LAYER_1
 10
0.51181102362
 20
0.3149606299199998
 30
0.0
  0
VERTEX
  5
84
  8
LAYER_1
 10
9.330708661380001
 20
0.3149606299199998
 30
0.0
 42
0.4142135623730929
  0
VERTEX
  5
85
  8
LAYER_1
 10
9.842519685000001
 20
0.8267716535399998
 30
0.0
  0
VERTEX
  5
86
  8
LAYER_1
 10
9.842519685000001
 20
5.07874015746
 30
0.0
 42
0.4142135623730911
  0
VERTEX
  5
87
  8
LAYER_1
 10
9.330708661380001
 20
5.59055118108
 30
0.0
  0
VERTEX
  5
88
  8
LAYER_1
 10
0.51181102362
 20
5.59055118108
 30
0.0
 42
0.4142135623730929
  0
SEQEND
  5
89
  8
LAYER_1
  0
POLYLINE
  5
43
  8
LAYER_1
 66
     1
 10
0.0
 20
0.0
 30
0.0
 70
     1
  0
VERTEX
  5
8A
  8
LAYER_1
 10
0.8858267716500006
 20
4.46850393699
 30
0.0
  0
VERTEX
  5
8B
  8
LAYER_1
 10
2.65748031495
 20
4.46850393699
 30
0.0
  0
VERTEX
  5
8C
  8
LAYER_1
 10
2.65748031495
 20
5.61023622045
 30
0.0
  0
VERTEX
  5
8D
  8
LAYER_1
 10
0.8858267716500006
 20
5.61023622045
 30
0.0
  0
SEQEND
  5
8E
  8
LAYER_1
  0
POLYLINE
  5
44
  8
LAYER_1
 66
     1
 10
0.0
 20
0.0
 30
0.0
 70
     1
  0
VERTEX
  5
8F
  8
LAYER_1
 10
0.8858267716500006
 20
2.38188976377
 30
0.0
  0
VERTEX
  5
90
  8
LAYER_1
 10
2.65748031495
 20
2.38188976377
 30
0.0
  0
VERTEX
  5
91
  8
LAYER_1
 10
2.65748031495
 20
3.52362204723
 30
0.0
  0
VERTEX
  5
92
  8
LAYER_1
 10
0.8858267716500006
 20
3.52362204723
 30
0.0
  0
SEQEND
  5
93
  8
LAYER_1
  0
POLYLINE
  5
45
  8
LAYER_1
 66
     1
 10
0.0
 20
0.0
 30
0.0
 70
     1
  0
VERTEX
  5
94
  8
LAYER_1
 10
0.8858267716500006
 20
0.2952755905500002
 30
0.0
  0
VERTEX
  5
95
  8
LAYER_1
 10
2.65748031495
 20
0.2952755905500002
 30
0.0
  0
VERTEX
  5
96
  8
LAYER_1
 10
2.65748031495
 20
1.43700787401
 30
0.0
  0
VERTEX
  5
97
  8
LAYER_1
 10
0.8858267716500006
 20
1.43700787401
 30
0.0
  0
SEQEND
  5
98
  8
LAYER_1
  0
POLYLINE
  5
46
  8
LAYER_1
 66
     1
 10
0.0
 20
0.0
 30
0.0
 70
     1
  0
VERTEX
  5
99
  8
LAYER_1
 10
7.185039370050001
 20
0.2952755905500002
 30
0.0
  0
VERTEX
  5
9A
  8
LAYER_1
 10
8.95669291335
 20
0.2952755905500002
 30
0.0
  0
VERTEX
  5
9B
  8
LAYER_1
 10
8.95669291335
 20
1.43700787401
 30
0.0
  0
VERTEX
  5
9C
  8
LAYER_1
 10
7.185039370050001
 20
1.43700787401
 30
0.0
  0
SEQEND
  5
9D
  8
LAYER_1
  0
POLYLINE
  5
47
  8
LAYER_1
 66
     1
 10
0.0
 20
0.0
 30
0.0
 70
     1
  0
VERTEX
  5
9E
  8
LAYER_1
 10
7.185039370050001
 20
2.38188976377
 30
0.0
  0
VERTEX
  5
9F
  8
LAYER_1
 10
8.95669291335
 20
2.38188976377
 30
0.0
  0
VERTEX
  5
A0
  8
LAYER_1
 10
8.95669291335
 20
3.52362204723
 30
0.0
  0
VERTEX
  5
A1
  8
LAYER_1
 10
7.185039370050001
 20
3.52362204723
 30
0.0
  0
SEQEND
  5
A2
  8
LAYER_1
  0
POLYLINE
  5
48
  8
LAYER_1
 66
     1
 10
0.0
 20
0.0
 30
0.0
 70
     1
  0
VERTEX
  5
A3
  8
LAYER_1
 10
7.185039370050001
 20
4.46850393699
 30
0.0
  0
VERTEX
  5
A4
  8
LAYER_1
 10
8.95669291335
 20
4.46850393699
 30
0.0
  0
VERTEX
  5
A5
  8
LAYER_1
 10
8.95669291335
 20
5.61023622045
 30
0.0
  0
VERTEX
  5
A6
  8
LAYER_1
 10
7.185039370050001
 20
5.61023622045
 30
0.0
  0
SEQEND
  5
A7
  8
LAYER_1
  0
POLYLINE
  5
49
  8
LAYER_1
 66
     1
 10
0.0
 20
0.0
 30
0.0
 70
     1
  0
VERTEX
  5
A8
  8
LAYER_1
 10
4.62598425195
 20
4.98031496061
 30
0.0
 42
0.4142135623730951
  0
VERTEX
  5
A9
  8
LAYER_1
 10
4.56692913384
 20
4.9212598425
 30
0.0
 42
0.4142135623730951
  0
VERTEX
  5
AA
  8
LAYER_1
 10
4.62598425195
 20
4.862204724390001
 30
0.0
 42
0.4142135623730951
  0
VERTEX
  5
AB
  8
LAYER_1
 10
4.68503937006
 20
4.9212598425
 30
0.0
 42
0.4142135623730951
  0
SEQEND
  5
AC
  8
LAYER_1
  0
POLYLINE
  5
4A
  8
LAYER_1
 66
     1
 10
0.0
 20
0.0
 30
0.0
 70
     1
  0
VERTEX
  5
AD
  8
LAYER_1
 10
5.216535433050001
 20
4.98031496061
 30
0.0
 42
0.4142135623730951
  0
VERTEX
  5
AE
  8
LAYER_1
 10
5.157480314940001
 20
4.9212598425
 30
0.0
 42
0.4142135623730951
  0
VERTEX
  5
AF
  8
LAYER_1
 10
5.216535433050001
 20
4.862204724390001
 30
0.0
 42
0.4142135623730951
  0
VERTEX
  5
B0
  8
LAYER_1
 10
5.275590551160001
 20
4.9212598425
 30
0.0
 42
0.4142135623730951
  0
SEQEND
  5
B1
  8
LAYER_1
  0
POLYLINE
  5
4B
  8
LAYER_1
 66
     1
 10
0.0
 20
0.0
 30
0.0
 70
     1
  0
VERTEX
  5
B2
  8
LAYER_1
 10
4.62598425195
 20
1.04330708661
 30
0.0
 42
0.4142135623730951
  0
VERTEX
  5
B3
  8
LAYER_1
 10
4.56692913384
 20
0.9842519685
 30
0.0
 42
0.4142135623730951
  0
VERTEX
  5
B4
  8
LAYER_1
 10
4.62598425195
 20
0.9251968503899999
 30
0.0
 42
0.4142135623730951
  0
VERTEX
  5
B5
  8
LAYER_1
 10
4.68503937006
 20
0.9842519685
 30
0.0
 42
0.4142135623730951
  0
SEQEND
  5
B6
  8
LAYER_1
  0
POLYLINE
  5
4C
  8
LAYER_1
 66
     1
 10
0.0
 20
0.0
 30
0.0
 70
     1
  0
VERTEX
  5
B7
  8
LAYER_1
 10
5.216535433050001
 20
1.04330708661
 30
0.0
 42
0.4142135623730951
  0
VERTEX
  5
B8
  8
LAYER_1
 10
5.157480314940001
 20
0.9842519685
 30
0.0
 42
0.4142135623730951
  0
VERTEX
  5
B9
  8
LAYER_1
 10
5.216535433050001
 20
0.9251968503899999
 30
0.0
 42
0.4142135623730951
  0
VERTEX
  5
BA
  8
LAYER_1
 10
5.275590551160001
 20
0.9842519685
 30
0.0
 42
0.4142135623730951
  0
SEQEND
  5
BB
  8
LAYER_1
  0
POLYLINE
  5
4D
  8
LAYER_1
 66
     1
 10
0.0
 20
0.0
 30
0.0
 70
     1
  0
VERTEX
  5
BC
  8
LAYER_1
 10
1.16141732283
 20
5.374015748010001
 30
0.0
 42
0.4142135623730951
  0
VERTEX
  5
BD
  8
LAYER_1
 10
1.10236220472
 20
5.3149606299
 30
0.0
 42
0.4142135623730951
  0
VERTEX
  5
BE
  8
LAYER_1
 10
1.16141732283
 20
5.25590551179
 30
0.0
 42
0.4142135623730951
  0
VERTEX
  5
BF
  8
LAYER_1
 10
1.220472440940001
 20
5.3149606299
 30
0.0
 42
0.4142135623730951
  0
SEQEND
  5
C0
  8
LAYER_1
  0
POLYLINE
  5
4E
  8
LAYER_1
 66
     1
 10
0.0
 20
0.0
 30
0.0
 70
     1
  0
VERTEX
  5
C1
  8
LAYER_1
 10
1.16141732283
 20
4.82283464565
 30
0.0
 42
0.4142135623730951
  0
VERTEX
  5
C2
  8
LAYER_1
 10
1.10236220472
 20
4.763779527540001
 30
0.0
 42
0.4142135623730951
  0
VERTEX
  5
C3
  8
LAYER_1
 10
1.16141732283
 20
4.70472440943
 30
0.0
 42
0.4142135623730951
  0
VERTEX
  5
C4
  8
LAYER_1
 10
1.220472440940001
 20
4.763779527540001
 30
0.0
 42
0.4142135623730951
  0
SEQEND
  5
C5
  8
LAYER_1
  0
POLYLINE
  5
4F
  8
LAYER_1
 66
     1
 10
0.0
 20
0.0
 30
0.0
 70
     1
  0
VERTEX
  5
C6
  8
LAYER_1
 10
2.38188976377
 20
4.82283464565
 30
0.0
 42
0.4142135623730951
  0
VERTEX
  5
C7
  8
LAYER_1
 10
2.32283464566
 20
4.763779527540001
 30
0.0
 42
0.4142135623730951
  0
VERTEX
  5
C8
  8
LAYER_1
 10
2.38188976377
 20
4.70472440943
 30
0.0
 42
0.4142135623730951
  0
VERTEX
  5
C9
  8
LAYER_1
 10
2.440944881880001
 20
4.763779527540001
 30
0.0
 42
0.4142135623730951
  0
SEQEND
  5
CA
  8
LAYER_1
  0
POLYLINE
  5
50
  8
LAYER_1
 66
     1
 10
0.0
 20
0.0
 30
0.0
 70
     1
  0
VERTEX
  5
CB
  8
LAYER_1
 10
2.38188976377
 20
5.374015748010001
 30
0.0
 42
0.4142135623730951
  0
VERTEX
  5
CC
  8
LAYER_1
 10
2.32283464566
 20
5.3149606299
 30
0.0
 42
0.4142135623730951
  0
VERTEX
  5
CD
  8
LAYER_1
 10
2.38188976377
 20
5.25590551179
 30
0.0
 42
0.4142135623730951
  0
VERTEX
  5
CE
  8
LAYER_1
 10
2.440944881880001
 20
5.3149606299
 30
0.0
 42
0.4142135623730951
  0
SEQEND
  5
CF
  8
LAYER_1
  0
POLYLINE
  5
51
  8
LAYER_1
 66
     1
 10
0.0
 20
0.0
 30
0.0
 70
     1
  0
VERTEX
  5
D0
  8
LAYER_1
 10
1.16141732283
 20
3.28740157479
 30
0.0
 42
0.4142135623730951
  0
VERTEX
  5
D1
  8
LAYER_1
 10
1.10236220472
 20
3.22834645668
 30
0.0
 42
0.4142135623730951
  0
VERTEX
  5
D2
  8
LAYER_1
 10
1.16141732283
 20
3.16929133857
 30
0.0
 42
0.4142135623730951
  0
VERTEX
  5
D3
  8
LAYER_1
 10
1.220472440940001
 20
3.22834645668
 30
0.0
 42
0.4142135623730951
  0
SEQEND
  5
D4
  8
LAYER_1
  0
POLYLINE
  5
52
  8
LAYER_1
 66
     1
 10
0.0
 20
0.0
 30
0.0
 70
     1
  0
VERTEX
  5
D5
  8
LAYER_1
 10
1.16141732283
 20
2.73622047243
 30
0.0
 42
0.4142135623730951
  0
VERTEX
  5
D6
  8
LAYER_1
 10
1.10236220472
 20
2.67716535432
 30
0.0
 42
0.4142135623730951
  0
VERTEX
  5
D7
  8
LAYER_1
 10
1.16141732283
 20
2.61811023621
 30
0.0
 42
0.4142135623730951
  0
VERTEX
  5
D8
  8
LAYER_1
 10
1.220472440940001
 20
2.67716535432
 30
0.0
 42
0.4142135623730951
  0
SEQEND
  5
D9
  8
LAYER_1
  0
POLYLINE
  5
53
  8
LAYER_1
 66
     1
 10
0.0
 20
0.0
 30
0.0
 70
     1
  0
VERTEX
  5
DA
  8
LAYER_1
 10
2.38188976377
 20
2.73622047243
 30
0.0
 42
0.4142135623730951
  0
VERTEX
  5
DB
  8
LAYER_1
 10
2.32283464566
 20
2.67716535432
 30
0.0
 42
0.4142135623730951
  0
VERTEX
  5
DC
  8
LAYER_1
 10
2.38188976377
 20
2.61811023621
 30
0.0
 42
0.4142135623730951
  0
VERTEX
  5
DD
  8
LAYER_1
 10
2.440944881880001
 20
2.67716535432
 30
0.0
 42
0.4142135623730951
  0
SEQEND
  5
DE
  8
LAYER_1
  0
POLYLINE
  5
54
  8
LAYER_1
 66
     1
 10
0.0
 20
0.0
 30
0.0
 70
     1
  0
VERTEX
  5
DF
  8
LAYER_1
 10
2.38188976377
 20
3.28740157479
 30
0.0
 42
0.4142135623730951
  0
VERTEX
  5
E0
  8
LAYER_1
 10
2.32283464566
 20
3.22834645668
 30
0.0
 42
0.4142135623730951
  0
VERTEX
  5
E1
  8
LAYER_1
 10
2.38188976377
 20
3.16929133857
 30
0.0
 42
0.4142135623730951
  0
VERTEX
  5
E2
  8
LAYER_1
 10
2.440944881880001
 20
3.22834645668
 30
0.0
 42
0.4142135623730951
  0
SEQEND
  5
E3
  8
LAYER_1
  0
POLYLINE
  5
55
  8
LAYER_1
 66
     1
 10
0.0
 20
0.0
 30
0.0
 70
     1
  0
VERTEX
  5
E4
  8
LAYER_1
 10
1.16141732283
 20
1.20078740157
 30
0.0
 42
0.4142135623730951
  0
VERTEX
  5
E5
  8
LAYER_1
 10
1.10236220472
 20
1.14173228346
 30
0.0
 42
0.4142135623730951
  0
VERTEX
  5
E6
  8
LAYER_1
 10
1.16141732283
 20
1.08267716535
 30
0.0
 42
0.4142135623730951
  0
VERTEX
  5
E7
  8
LAYER_1
 10
1.220472440940001
 20
1.14173228346
 30
0.0
 42
0.4142135623730951
  0
SEQEND
  5
E8
  8
LAYER_1
  0
POLYLINE
  5
56
  8
LAYER_1
 66
     1
 10
0.0
 20
0.0
 30
0.0
 70
     1
  0
VERTEX
  5
E9
  8
LAYER_1
 10
1.16141732283
 20
0.6496062992100002
 30
0.0
 42
0.4142135623730951
  0
VERTEX
  5
EA
  8
LAYER_1
 10
1.10236220472
 20
0.5905511810999999
 30
0.0
 42
0.4142135623730951
  0
VERTEX
  5
EB
  8
LAYER_1
 10
1.16141732283
 20
0.5314960629900001
 30
0.0
 42
0.4142135623730951
  0
VERTEX
  5
EC
  8
LAYER_1
 10
1.220472440940001
 20
0.5905511810999999
 30
0.0
 42
0.4142135623730951
  0
SEQEND
  5
ED
  8
LAYER_1
  0
POLYLINE
  5
57
  8
LAYER_1
 66
     1
 10
0.0
 20
0.0
 30
0.0
 70
     1
  0
VERTEX
  5
EE
  8
LAYER_1
 10
2.38188976377
 20
0.6496062992100002
 30
0.0
 42
0.4142135623730951
  0
VERTEX
  5
EF
  8
LAYER_1
 10
2.32283464566
 20
0.5905511810999999
 30
0.0
 42
0.4142135623730951
  0
VERTEX
  5
F0
  8
LAYER_1
 10
2.38188976377
 20
0.5314960629900001
 30
0.0
 42
0.4142135623730951
  0
VERTEX
  5
F1
  8
LAYER_1
 10
2.440944881880001
 20
0.5905511810999999
 30
0.0
 42
0.4142135623730951
  0
SEQEND
  5
F2
  8
LAYER_1
  0
POLYLINE
  5
58
  8
LAYER_1
 66
     1
 10
0.0
 20
0.0
 30
0.0
 70
     1
  0
VERTEX
  5
F3
  8
LAYER_1
 10
2.38188976377
 20
1.20078740157
 30
0.0
 42
0.4142135623730951
  0
VERTEX
  5
F4
  8
LAYER_1
 10
2.32283464566
 20
1.14173228346
 30
0.0
 42
0.4142135623730951
  0
VERTEX
  5
F5
  8
LAYER_1
 10
2.38188976377
 20
1.08267716535
 30
0.0
 42
0.4142135623730951
  0
VERTEX
  5
F6
  8
LAYER_1
 10
2.440944881880001
 20
1.14173228346
 30
0.0
 42
0.4142135623730951
  0
SEQEND
  5
F7
  8
LAYER_1
  0
POLYLINE
  5
59
  8
LAYER_1
 66
     1
 10
0.0
 20
0.0
 30
0.0
 70
     1
  0
VERTEX
  5
F8
  8
LAYER_1
 10
7.460629921230001
 20
5.374015748010001
 30
0.0
 42
0.4142135623730951
  0
VERTEX
  5
F9
  8
LAYER_1
 10
7.401574803120001
 20
5.3149606299
 30
0.0
 42
0.4142135623730951
  0
VERTEX
  5
FA
  8
LAYER_1
 10
7.460629921230001
 20
5.25590551179
 30
0.0
 42
0.4142135623730951
  0
VERTEX
  5
FB
  8
LAYER_1
 10
7.519685039340001
 20
5.3149606299
 30
0.0
 42
0.4142135623730951
  0
SEQEND
  5
FC
  8
LAYER_1
  0
POLYLINE
  5
5A
  8
LAYER_1
 66
     1
 10
0.0
 20
0.0
 30
0.0
 70
     1
  0
VERTEX
  5
FD
  8
LAYER_1
 10
7.460629921230001
 20
4.82283464565
 30
0.0
 42
0.4142135623730951
  0
VERTEX
  5
FE
  8
LAYER_1
 10
7.401574803120001
 20
4.763779527540001
 30
0.0
 42
0.4142135623730951
  0
VERTEX
  5
FF
  8
LAYER_1
 10
7.460629921230001
 20
4.70472440943
 30
0.0
 42
0.4142135623730951
  0
VERTEX
  5
100
  8
LAYER_1
 10
7.519685039340001
 20
4.763779527540001
 30
0.0
 42
0.4142135623730951
  0
SEQEND
  5
101
  8
LAYER_1
  0
POLYLINE
  5
5B
  8
LAYER_1
 66
     1
 10
0.0
 20
0.0
 30
0.0
 70
     1
  0
VERTEX
  5
102
  8
LAYER_1
 10
8.681102362170002
 20
4.82283464565
 30
0.0
 42
0.4142135623730951
  0
VERTEX
  5
103
  8
LAYER_1
 10
8.622047244060001
 20
4.763779527540001
 30
0.0
 42
0.4142135623730951
  0
VERTEX
  5
104
  8
LAYER_1
 10
8.681102362170002
 20
4.70472440943
 30
0.0
 42
0.4142135623730951
  0
VERTEX
  5
105
  8
LAYER_1
 10
8.74015748028
 20
4.763779527540001
 30
0.0
 42
0.4142135623730951
  0
SEQEND
  5
106
  8
LAYER_1
  0
POLYLINE
  5
5C
  8
LAYER_1
 66
     1
 10
0.0
 20
0.0
 30
0.0
 70
     1
  0
VERTEX
  5
107
  8
LAYER_1
 10
8.681102362170002
 20
5.374015748010001
 30
0.0
 42
0.4142135623730951
  0
VERTEX
  5
108
  8
LAYER_1
 10
8.622047244060001
 20
5.3149606299
 30
0.0
 42
0.4142135623730951
  0
VERTEX
  5
109
  8
LAYER_1
 10
8.681102362170002
 20
5.25590551179
 30
0.0
 42
0.4142135623730951
  0
VERTEX
  5
10A
  8
LAYER_1
 10
8.74015748028
 20
5.3149606299
 30
0.0
 42
0.4142135623730951
  0
SEQEND
  5
10B
  8
LAYER_1
  0
POLYLINE
  5
5D
  8
LAYER_1
 66
     1
 10
0.0
 20
0.0
 30
0.0
 70
     1
  0
VERTEX
  5
10C
  8
LAYER_1
 10
7.460629921230001
 20
3.28740157479
 30
0.0
 42
0.4142135623730951
  0
VERTEX
  5
10D
  8
LAYER_1
 10
7.401574803120001
 20
3.22834645668
 30
0.0
 42
0.4142135623730951
  0
VERTEX
  5
10E
  8
LAYER_1
 10
7.460629921230001
 20
3.16929133857
 30
0.0
 42
0.4142135623730951
  0
VERTEX
  5
10F
  8
LAYER_1
 10
7.519685039340001
 20
3.22834645668
 30
0.0
 42
0.4142135623730951
  0
SEQEND
  5
110
  8
LAYER_1
  0
POLYLINE
  5
5E
  8
LAYER_1
 66
     1
 10
0.0
 20
0.0
 30
0.0
 70
     1
  0
VERTEX
  5
111
  8
LAYER_1
 10
7.460629921230001
 20
2.73622047243
 30
0.0
 42
0.4142135623730951
  0
VERTEX
  5
112
  8
LAYER_1
 10
7.401574803120001
 20
2.67716535432
 30
0.0
 42
0.4142135623730951
  0
VERTEX
  5
113
  8
LAYER_1
 10
7.460629921230001
 20
2.61811023621
 30
0.0
 42
0.4142135623730951
  0
VERTEX
  5
114
  8
LAYER_1
 10
7.519685039340001
 20
2.67716535432
 30
0.0
 42
0.4142135623730951
  0
SEQEND
  5
115
  8
LAYER_1
  0
POLYLINE
  5
5F
  8
LAYER_1
 66
     1
 10
0.0
 20
0.0
 30
0.0
 70
     1
  0
VERTEX
  5
116
  8
LAYER_1
 10
8.681102362170002
 20
2.73622047243
 30
0.0
 42
0.4142135623730951
  0
VERTEX
  5
117
  8
LAYER_1
 10
8.622047244060001
 20
2.67716535432
 30
0.0
 42
0.4142135623730951
  0
VERTEX
  5
118
  8
LAYER_1
 10
8.681102362170002
 20
2.61811023621
 30
0.0
 42
0.4142135623730951
  0
VERTEX
  5
119
  8
LAYER_1
 10
8.74015748028
 20
2.67716535432
 30
0.0
 42
0.4142135623730951
  0
SEQEND
  5
11A
  8
LAYER_1
  0
POLYLINE
  5
60
  8
LAYER_1
 66
     1
 10
0.0
 20
0.0
 30
0.0
 70
     1
  0
VERTEX
  5
11B
  8
LAYER_1
 10
8.681102362170002
 20
3.28740157479
 30
0.0
 42
0.4142135623730951
  0
VERTEX
  5
11C
  8
LAYER_1
 10
8.622047244060001
 20
3.22834645668
 30
0.0
 42
0.4142135623730951
  0
VERTEX
  5
11D
  8
LAYER_1
 10
8.681102362170002
 20
3.16929133857
 30
0.0
 42
0.4142135623730951
  0
VERTEX
  5
11E
  8
LAYER_1
 10
8.74015748028
 20
3.22834645668
 30
0.0
 42
0.4142135623730951
  0
SEQEND
  5
11F
  8
LAYER_1
  0
POLYLINE
  5
61
  8
LAYER_1
 66
     1
 10
0.0
 20
0.0
 30
0.0
 70
     1
  0
VERTEX
  5
120
  8
LAYER_1
 10
7.460629921230001
 20
1.20078740157
 30
0.0
 42
0.4142135623730951
  0
VERTEX
  5
121
  8
LAYER_1
 10
7.401574803120001
 20
1.14173228346
 30
0.0
 42
0.4142135623730951
  0
VERTEX
  5
122
  8
LAYER_1
 10
7.460629921230001
 20
1.08267716535
 30
0.0
 42
0.4142135623730951
  0
VERTEX
  5
123
  8
LAYER_1
 10
7.519685039340001
 20
1.14173228346
 30
0.0
 42
0.4142135623730951
  0
SEQEND
  5
124
  8
LAYER_1
  0
POLYLINE
  5
62
  8
LAYER_1
 66
     1
 10
0.0
 20
0.0
 30
0.0
 70
     1
  0
VERTEX
  5
125
  8
LAYER_1
 10
7.460629921230001
 20
0.6496062992100002
 30
0.0
 42
0.4142135623730951
  0
VERTEX
  5
126
  8
LAYER_1
 10
7.401574803120001
 20
0.5905511810999999
 30
0.0
 42
0.4142135623730951
  0
VERTEX
  5
127
  8
LAYER_1
 10
7.460629921230001
 20
0.5314960629900001
 30
0.0
 42
0.4142135623730951
  0
VERTEX
  5
128
  8
LAYER_1
 10
7.519685039340001
 20
0.5905511810999999
 30
0.0
 42
0.4142135623730951
  0
SEQEND
  5
129
  8
LAYER_1
  0
POLYLINE
  5
63
  8
LAYER_1
 66
     1
 10
0.0
 20
0.0
 30
0.0
 70
     1
  0
VERTEX
  5
12A
  8
LAYER_1
 10
8.681102362170002
 20
0.6496062992100002
 30
0.0
 42
0.4142135623730951
  0
VERTEX
  5
12B
  8
LAYER_1
 10
8.622047244060001
 20
0.5905511810999999
 30
0.0
 42
0.4142135623730951
  0
VERTEX
  5
12C
  8
LAYER_1
 10
8.681102362170002
 20
0.5314960629900001
 30
0.0
 42
0.4142135623730951
  0
VERTEX
  5
12D
  8
LAYER_1
 10
8.74015748028
 20
0.5905511810999999
 30
0.0
 42
0.4142135623730951
  0
SEQEND
  5
12E
  8
LAYER_1
  0
POLYLINE
  5
64
  8
LAYER_1
 66
     1
 10
0.0
 20
0.0
 30
0.0
 70
     1
  0
VERTEX
  5
12F
  8
LAYER_1
 10
8.681102362170002
 20
1.20078740157
 30
0.0
 42
0.4142135623730951
  0
VERTEX
  5
130
  8
LAYER_1
 10
8.622047244060001
 20
1.14173228346
 30
0.0
 42
0.4142135623730951
  0
VERTEX
  5
131
  8
LAYER_1
 10
8.681102362170002
 20
1.08267716535
 30
0.0
 42
0.4142135623730951
  0
VERTEX
  5
132
  8
LAYER_1
 10
8.74015748028
 20
1.14173228346
 30
0.0
 42
0.4142135623730951
  0
SEQEND
  5
133
  8
LAYER_1
  0
ENDSEC
  0
EOF
